<?xml version="1.0" encoding="utf-8"?>
<!-- Generator: Adobe Illustrator 24.0.0, SVG Export Plug-In . SVG Version: 6.00 Build 0)  -->
<svg version="1.1" id="Calque_1" xmlns="http://www.w3.org/2000/svg" xmlns:xlink="http://www.w3.org/1999/xlink" x="0px" y="0px"
	 viewBox="0 0 632 154.9" style="enable-background:new 0 0 632 154.9;" xml:space="preserve">
<style type="text/css">
	.st0{fill:#1E1E50;}
</style>
<path class="st0" d="M197.4,44.6h-11.7v58.9h11.7c16.4,0,29-13.1,29-29.4S213.7,44.6,197.4,44.6 M198,123.3h-33.4V24.7H198
	c27.6,0,50.2,21.6,50.2,49.3C248.1,101.8,225.6,123.3,198,123.3"/>
<path class="st0" d="M280.4,109.7c8.5,0,14.2-5.4,14.2-13.3v-2.8l-12.7,1.8c-6.5,0.9-9.9,3.7-9.9,7.8
	C272.2,107.1,275.6,109.7,280.4,109.7 M277.3,82l17.3-2.4v-2.4c0-5.5-4.1-9.3-10.3-9.3c-5.8,0-9.7,3.1-11.4,8.7l-18.3-4.5
	c3.4-12.4,14.9-20.3,29.9-20.3c19.2,0,30,9.7,30,26.6v44.8h-19l-0.2-7.8c-4.1,6.1-11.7,9.7-20.3,9.7c-13.8,0-23-8.3-23-20.6
	C252.1,92,260.3,84.4,277.3,82"/>
<rect x="324.1" y="24.7" class="st0" width="20.6" height="98.6"/>
<path class="st0" d="M404.1,80.8c-0.9-7.5-7.2-12.8-15.5-12.8c-8.2,0-14.8,6.2-15.6,12.8H404.1L404.1,80.8z M421.9,106.7
	c-5.8,11.4-17,18.5-32.3,18.5c-21.7,0-36.9-15.1-36.9-36.6c0-21,15.5-36.6,36.1-36.6c21,0,35.5,15.4,35.5,37.2
	c0,2.4-0.1,4.2-0.3,5.1h-51.1c0.7,8.2,8.2,14.1,16.8,14.1c7.6,0,11.7-3.2,14.9-8.4L421.9,106.7z"/>
<path class="st0" d="M452.5,123.3h-20.6V53.7h20.6v8.9c4.2-6.8,11.3-10.7,20.6-10.7c15.9,0,25.7,10.9,25.7,28.5v43h-20.6V85.2
	c0-9.2-4.5-14.4-12.5-14.4c-7.9,0-13.1,5.9-13.1,15.6L452.5,123.3L452.5,123.3z"/>
<path class="st0" d="M504.5,152.4v-17.2c2.4,1.1,5.1,1.7,7.9,1.7c6.1,0,10.2-2.4,13-9.2l2-4.5l-28.2-69.5h21.7l17.3,46.6l17.6-46.6
	h21.1l-31.2,75.7c-7.3,18-16.5,25.5-29.6,25.5C510.6,154.9,506.8,153.6,504.5,152.4"/>
<path class="st0" d="M597.3,73.2c0,2.5,2,4.4,5.8,5.4l8.7,2.3c13.1,3.4,20.2,10.7,20.2,20.6c0,13.9-11.8,23.8-28,23.8
	c-13.8,0-24.8-6.3-29.5-17.1l16.6-9.2c2.5,5.8,7.8,9.4,13,9.4c4.4,0,7.3-2,7.3-5.4c0-2.4-2.1-4.2-6.3-5.2l-8.2-2
	C583.8,92.7,577,85.4,577,74.4c0-13.3,11-22.6,26.9-22.6c12,0,23.3,6.5,27.6,16.2l-16.8,8.9c-2.1-5.2-6.8-8.6-11-8.6
	C600,68.4,597.3,70.3,597.3,73.2"/>
<path class="st0" d="M51.4,0h-3v148h3.7c42.7,0,70.8-30.9,70.8-74.2C122.8,33,99.5,0,51.4,0 M0,148h38.7V0H0V148z"/>
</svg>
